<svg height="50" viewBox="0 0 50 50" width="50" xmlns="http://www.w3.org/2000/svg"><g fill="none" fill-rule="evenodd"><rect fill="#f1f1f1" fill-rule="nonzero" height="50" rx="5" width="50"/><g fill="#646464"><path d="m35.3665882 32.1299496c0 1.233479-1.0033613 2.2366386-2.2366386 2.2366386h-16.4020841c-1.2334789 0-2.2368403-1.0031596-2.2368403-2.2366386v-16.4020841c0-1.2334789 1.0033614-2.2366386 2.2368403-2.2366386h16.4020841c1.2332773 0 2.2366386 1.0031597 2.2366386 2.2366386zm-2.2366386-20.1299496h-16.4020841c-2.0553277 0-3.7278655 1.6723361-3.7278655 3.7278655v16.4020841c0 2.0553277 1.6725378 3.7278655 3.7278655 3.7278655h16.4020841c2.0553277 0 3.7278655-1.6725378 3.7278655-3.7278655v-16.4020841c0-2.0555294-1.6725378-3.7278655-3.7278655-3.7278655z"/><path d="m18.0026891 16.2544538c.293647-.3111933.2833613-.7671933 0-1.0511597-.2761009-.2833613-.7754622-.2833613-1.0586219-.0076638-.3003025.3180504-.2750924.783126 0 1.0588235.2912269.2906218.7742521.2851765 1.0586219 0z"/><path d="m21.7303529 16.2544538c.2936471-.3111933.2833614-.7671933 0-1.0511597-.2758991-.2761008-.7752605-.2833613-1.0586218 0-.2833614.2839664-.2936471.7399664 0 1.0511597.2912269.2906218.7742521.2851765 1.0586218 0z" opacity=".495233"/><rect height="1.5" rx=".75" width="13" x="17" y="21"/><rect height="1.5" rx=".75" width="9" x="17" y="25"/></g></g></svg>