<svg height="50" viewBox="0 0 50 50" width="50" xmlns="http://www.w3.org/2000/svg"><g fill="none"><rect fill="#e8e8ff" height="50" rx="5" width="50"/><g fill="#071fcb" transform="translate(13 16)"><path d="m21.8567111 16.0282022c0 .8033412-.653392 1.4571273-1.4571272 1.4571273h-17.48532948c-.80353817 0-1.45712721-.6537861-1.45712721-1.4571273v-13.11394778c0-.80314409.65358904-1.45712721 1.45712721-1.45712721h5.0620146c.32925755 0 .65240679.1138904.91033505.32019361l2.44529393 1.95584106c.5144772.41122711 1.1611698.63821975 1.820276.63821975h7.2474099c.8037352 0 1.4571272.65398313 1.4571272 1.4571272zm-1.4571272-13.11394778h-7.2474099c-.3298487 0-.6528009-.11310223-.910335-.31940544l-2.44489985-1.9550529c-.51487132-.41280344-1.16156391-.63979608-1.82067013-.63979608h-5.0620146c-1.60687929 0-2.91425442 1.30717808-2.91425442 2.91425442v13.11394778c0 1.6072734 1.30737513 2.9142545 2.91425442 2.9142545h17.48532948c1.6070763 0 2.9142544-1.3069811 2.9142544-2.9142545v-10.19969337c0-1.60727337-1.3071781-2.91425441-2.9142544-2.91425441z"/><path d="m18.2139916 10.1998904h-8.74256624c-.4023602 0-.72866211.3259079-.72866211.7284652 0 .4027542.32630191.7286621.72866211.7286621h8.74256624c.4023602 0 .7286621-.3259079.7286621-.7286621 0-.4025573-.3263019-.7284652-.7286621-.7284652z"/><path d="m15.2997372 13.1141449h-5.82831184c-.4023602 0-.72866211.3257108-.72866211.7284651s.32630191.728465.72866211.728465h5.82831184c.4023601 0 .7286621-.3257107.7286621-.728465s-.326302-.7284651-.7286621-.7284651z" opacity=".606934"/></g></g></svg>