<svg height="50" viewBox="0 0 50 50" width="50" xmlns="http://www.w3.org/2000/svg"><g fill="none" fill-rule="evenodd"><rect fill="#e8efff" fill-rule="nonzero" height="50" rx="5" width="50"/><g fill="#0642cd" transform="translate(13 14)"><path d="m21.4381261 16.435916c0 .3942857-.3206471.7145462-.7147395.7145462h-18.57955467c-.39389916 0-.71454622-.3202605-.71454622-.7145462v-14.29208407c0-.39428571.32064706-.71454622.71454622-.71454622h18.57955467c.3940924 0 .7147395.32026051.7147395.71454622zm-8.5753278 5.0022101h-2.8583781v-2.8583782h2.8583781zm7.8605883-21.4381261h-18.57955467c-1.18227731 0-2.14383193.9617479-2.14383193 2.14383193v14.29208407c0 1.182084.96155462 2.1438319 2.14383193 2.1438319h6.43130252v2.8583782h-2.14363865c-.39467227 0-.7147395.3194873-.7147395.7145462 0 .3950588.32006723.7147395.7147395.7147395h10.0044202c.394479 0 .7145462-.3196807.7145462-.7147395 0-.3950589-.3200672-.7145462-.7145462-.7145462h-2.143832v-2.8583782h6.4313026c1.1822773 0 2.1438319-.9617479 2.1438319-2.1438319v-14.29208407c0-1.18208403-.9615546-2.14383193-2.1438319-2.14383193z"/><path d="m17.3883866 13.9948235-2.8293866-2.8297731c-.2790924-.2790924-.7315546-.2790924-1.0104538 0l-.6857479.6859412v-3.27721009h3.276437l-.6851681.68536135c-.2790924.27909243-.2790924.73155462 0 1.01045374l2.8295799 2.8297731zm-.4184454-4.23045375 1.4002941-1.39971429c.4501429-.45014285.1287227-1.21996638-.5052269-1.21996638h-5.7167563c-.3946723 0-.7145462.31968067-.7145462.71454621v5.71675631c0 .6325966.768084.9553697 1.2197731.5054202l1.4002941-1.4006807 2.8293866 2.8297731c.2790924.2790924.7315546.2790924 1.0104537 0l1.9059076-1.9057143c.2790924-.2792857.2790924-.7313613 0-1.010647z" opacity=".603237"/></g></g></svg>