<svg fill="#000000" xmlns="http://www.w3.org/2000/svg"  viewBox="0 0 16 16" width="128px" height="128px"><path d="M 6.5 1 C 6.222656 1 6 1.222656 6 1.5 L 6 2.28125 C 5.601563 2.398438 5.226563 2.554688 4.875 2.75 L 4.320313 2.195313 C 4.125 2.003906 3.804688 2.003906 3.609375 2.195313 L 2.195313 3.609375 C 2.003906 3.804688 2.003906 4.125 2.195313 4.320313 L 2.757813 4.875 C 2.558594 5.230469 2.402344 5.605469 2.289063 6 L 1.5 6 C 1.222656 6 1 6.222656 1 6.5 L 1 8.5 C 1 8.777344 1.222656 9 1.5 9 L 2.28125 9 C 2.398438 9.398438 2.554688 9.773438 2.75 10.125 L 2.195313 10.683594 C 2.003906 10.875 2.003906 11.195313 2.195313 11.390625 L 3.609375 12.800781 C 3.804688 12.996094 4.125 12.996094 4.320313 12.800781 L 4.875 12.246094 C 5.226563 12.441406 5.601563 12.597656 6 12.714844 L 6 13.5 C 6 13.777344 6.222656 14 6.5 14 L 8.5 14 C 8.773438 14 8.996094 13.777344 9 13.5 L 9 12.71875 C 9.398438 12.601563 9.773438 12.445313 10.125 12.25 L 10.683594 12.800781 C 10.875 12.996094 11.195313 12.996094 11.390625 12.800781 L 12.800781 11.390625 C 12.996094 11.195313 12.996094 10.875 12.800781 10.683594 L 12.242188 10.125 C 12.4375 9.773438 12.597656 9.398438 12.714844 9 L 13.5 9 C 13.777344 9 14 8.777344 14 8.5 L 14 6.5 C 14 6.222656 13.777344 6 13.5 6 L 12.710938 6 C 12.597656 5.605469 12.445313 5.226563 12.25 4.871094 L 12.800781 4.320313 C 12.996094 4.125 12.996094 3.804688 12.800781 3.609375 L 11.390625 2.195313 C 11.296875 2.101563 11.167969 2.050781 11.035156 2.050781 C 10.902344 2.050781 10.777344 2.101563 10.683594 2.195313 L 10.128906 2.75 C 9.777344 2.550781 9.398438 2.394531 9 2.277344 L 9 1.5 C 9 1.222656 8.777344 1 8.5 1 Z M 7 2 L 8 2 L 8 2.601563 C 8 2.839844 8.167969 3.042969 8.398438 3.09375 C 8.972656 3.207031 9.503906 3.433594 9.976563 3.75 C 10.175781 3.878906 10.441406 3.851563 10.609375 3.683594 L 11.035156 3.257813 L 11.742188 3.964844 L 11.3125 4.390625 C 11.148438 4.5625 11.121094 4.824219 11.25 5.023438 C 11.5625 5.488281 11.777344 6.023438 11.894531 6.601563 C 11.945313 6.832031 12.148438 7 12.386719 7 L 13 7 L 13 8 L 12.390625 8 C 12.152344 8 11.949219 8.167969 11.902344 8.402344 C 11.785156 8.96875 11.554688 9.496094 11.242188 9.96875 C 11.109375 10.167969 11.136719 10.429688 11.304688 10.597656 L 11.742188 11.035156 L 11.035156 11.742188 L 10.597656 11.308594 C 10.433594 11.140625 10.167969 11.113281 9.96875 11.246094 C 9.492188 11.558594 8.96875 11.792969 8.398438 11.90625 C 8.167969 11.953125 8 12.160156 8 12.398438 L 8 13 L 7 13 L 7 12.390625 C 7 12.152344 6.832031 11.949219 6.597656 11.902344 C 6.03125 11.785156 5.503906 11.554688 5.03125 11.242188 C 4.832031 11.113281 4.566406 11.136719 4.398438 11.308594 L 3.964844 11.742188 L 3.257813 11.035156 L 3.691406 10.601563 C 3.859375 10.433594 3.886719 10.171875 3.757813 9.972656 C 3.441406 9.492188 3.207031 8.96875 3.09375 8.398438 C 3.042969 8.167969 2.839844 8 2.601563 8 L 2 8 L 2 7 L 2.609375 7 C 2.847656 7 3.050781 6.832031 3.101563 6.601563 C 3.214844 6.03125 3.445313 5.503906 3.757813 5.03125 C 3.886719 4.832031 3.863281 4.566406 3.695313 4.398438 L 3.257813 3.964844 L 3.964844 3.257813 L 4.398438 3.691406 C 4.566406 3.859375 4.828125 3.886719 5.027344 3.757813 C 5.507813 3.441406 6.03125 3.207031 6.601563 3.09375 C 6.832031 3.042969 7 2.839844 7 2.601563 Z M 7.585938 5 C 6.214844 4.953125 5.050781 6.039063 5 7.414063 C 4.953125 8.785156 6.039063 9.949219 7.414063 10 C 8.785156 10.046875 9.949219 8.960938 10 7.585938 C 10.046875 6.214844 8.960938 5.050781 7.585938 5 Z M 7.554688 6 C 8.386719 6.03125 9.03125 6.71875 9 7.554688 C 8.96875 8.386719 8.28125 9.03125 7.445313 9 C 6.613281 8.96875 5.96875 8.28125 6 7.445313 C 6.03125 6.613281 6.71875 5.96875 7.554688 6 Z"/></svg>