<?xml version="1.0" encoding="iso-8859-1"?>
<!-- Generator: Adobe Illustrator 19.0.0, SVG Export Plug-In . SVG Version: 6.00 Build 0)  -->
<svg version="1.1" id="Layer_1" xmlns="http://www.w3.org/2000/svg" xmlns:xlink="http://www.w3.org/1999/xlink" x="0px" y="0px"
	 viewBox="0 0 472.616 472.616" style="enable-background:new 0 0 472.616 472.616;" xml:space="preserve">
<g>
	<g>
		<path d="M289.966,231.969c0-59.62,10.963-111.865,29.163-149.142c-106.982,61.473-200.795,65.399-247.864,68.235
			c-26.466,1.594-50.836,18.818-63.507,45.789c-10.328,21.985-10.267,47.902-0.288,70.044
			c12.575,27.909,37.087,46.209,63.794,45.979c4.422-0.038,9.716,0.029,15.604,0.228c-9.535,42.911,15.044,88.307,59.25,107.464
			c13.51,5.855,27.754,8.798,41.875,8.798c11.005,0,21.937-1.788,32.38-5.394c24.149-8.327,42.817-25.308,52.563-47.798
			c2.269-5.231,3.807-10.71,4.981-16.27c13.534,6.253,27.315,13.293,41.251,21.284C300.946,343.904,289.966,291.633,289.966,231.969
			z M254.87,368.344c-7.524,17.356-22.052,30.499-40.919,37.01c-19.177,6.615-40.494,5.596-60.004-2.866
			c-36.58-15.848-56.599-53.562-47.13-88.204c37.589,3.05,91.884,12.199,152.715,37.529
			C258.702,357.498,257.161,363.056,254.87,368.344z"/>
	</g>
</g>
<g>
	<g>
		<path d="M391.137,43.253c-32.566,0-60.587,44.358-73.632,108.315c43.489,1.036,78.566,36.668,78.566,80.402
			c0,43.733-35.079,79.356-78.567,80.392c13.043,63.959,41.065,108.319,73.633,108.319c45,0,81.479-84.491,81.479-188.714
			S436.137,43.253,391.137,43.253z"/>
	</g>
</g>
<g>
</g>
<g>
</g>
<g>
</g>
<g>
</g>
<g>
</g>
<g>
</g>
<g>
</g>
<g>
</g>
<g>
</g>
<g>
</g>
<g>
</g>
<g>
</g>
<g>
</g>
<g>
</g>
<g>
</g>
</svg>
