<?xml version="1.0" encoding="utf-8"?>
<!-- Generator: Adobe Illustrator 25.2.3, SVG Export Plug-In . SVG Version: 6.00 Build 0)  -->
<svg version="1.1" id="Livello_1" xmlns="http://www.w3.org/2000/svg" xmlns:xlink="http://www.w3.org/1999/xlink" x="0px" y="0px"
	 viewBox="0 0 50 50" style="enable-background:new 0 0 50 50;" xml:space="preserve">
<style type="text/css">
	.st0{fill:#FFEAEC;}
	.st1{fill:#FD4233;stroke:#FD4233;}
	.st2{fill:#FF402F;}
</style>
<g>
	<path class="st0" d="M5,0h40c2.8,0,5,2.2,5,5v40c0,2.8-2.2,5-5,5H5c-2.8,0-5-2.2-5-5V5C0,2.2,2.2,0,5,0z"/>
	<g transform="translate(15 12)">
		<path class="st1" d="M18,24.8H2c-1.1,0-2-0.9-2-2V2c0-1.1,0.9-2,2-2h8.1c0.5,0,1,0.2,1.4,0.6l7.9,7.9C19.8,8.8,20,9.3,20,9.9v12.9
			C20,23.9,19.1,24.8,18,24.8z M2,0.8C1.3,0.8,0.8,1.3,0.8,2v20.8C0.8,23.5,1.3,24,2,24h16c0.7,0,1.2-0.5,1.2-1.2V9.9
			c0-0.3-0.1-0.6-0.4-0.8L11,1.2c-0.2-0.2-0.5-0.4-0.8-0.4L2,0.8z"/>
		<path class="st2" d="M14.9,10h-11c-0.5,0-0.9-0.4-0.9-0.9v0c0-0.5,0.4-0.9,0.9-0.9h11c0.5,0,0.9,0.4,0.9,0.9v0
			C15.8,9.6,15.4,10,14.9,10z"/>
		<path class="st2" d="M14.9,13h-11c-0.5,0-0.9-0.4-0.9-0.9v0c0-0.5,0.4-0.9,0.9-0.9h11c0.5,0,0.9,0.4,0.9,0.9v0
			C15.8,12.6,15.4,13,14.9,13z"/>
		<path class="st2" d="M14.9,16h-11c-0.5,0-0.9-0.4-0.9-0.9v0c0-0.5,0.4-0.9,0.9-0.9h11c0.5,0,0.9,0.4,0.9,0.9v0
			C15.8,15.6,15.4,16,14.9,16z"/>
		<path class="st2" d="M14.9,19.1h-11c-0.5,0-0.9-0.4-0.9-0.9v0c0-0.5,0.4-0.9,0.9-0.9h11c0.5,0,0.9,0.4,0.9,0.9v0
			C15.8,18.7,15.4,19.1,14.9,19.1z"/>
	</g>
</g>
</svg>
