<svg height="50" viewBox="0 0 50 50" width="50" xmlns="http://www.w3.org/2000/svg"><g fill="none" fill-rule="evenodd"><rect fill="#ebf6ff" fill-rule="nonzero" height="50" rx="5" width="50"/><g fill="#0c8cf4" stroke="#0c8cf4" stroke-width=".25" transform="translate(15 15)"><path d="m16.3927457 7.66950659c-.3354842 0-.6070901.27160851-.6070901.60709594v9.68758937c0 1.0044917-.8171166 1.821452-1.8214344 1.821452h-10.9284424c-1.00448201 0-1.82143444-.8169603-1.82143444-1.821452v-10.92854799c0-1.0043275.81695243-1.82145203 1.82143444-1.82145203h9.6874958c.3356484 0 .60709-.2714443.60709-.60709594 0-.33548742-.2714416-.60709594-.60709-.60709594h-9.6874958c-1.67380826 0-3.0357788 1.36181948-3.0357788 3.03564391v10.92854799c0 1.6738244 1.36197054 3.0358081 3.0357788 3.0358081h10.9284424c1.6738083 0 3.0357788-1.3619837 3.0357788-3.0358081v-9.68758937c0-.33548743-.2716059-.60709594-.6072543-.60709594z"/><path d="m20.9530614.37764055c-.0619788-.14973406-.1811434-.26872802-.3308843-.33070404-.0745398-.03074011-.1537074-.04693651-.2332056-.04693651h-7.3353166c-.3378259 0-.6110285.2731903-.6110285.61100093s.2732026.61100093.6110285.61100093h5.8602208l-8.7348809 8.73498303c-.23865974.23864901-.23865974.62537941 0 .86402841.238825.2386489.6254076.2386489.8642326 0l8.7345504-8.7348178v5.85681661c0 .33764536.2733679.61100093.6111937.61100093.3378259 0 .6110285-.27335557.6110285-.61100093v-7.33201118c0-.07949457-.0161971-.15865861-.0469386-.23336038z"/></g></g></svg>