<svg height="50" viewBox="0 0 50 50" width="50" xmlns="http://www.w3.org/2000/svg"><g fill="none" fill-rule="evenodd"><rect fill="#dff9eb" fill-rule="nonzero" height="50" rx="5" width="50"/><g fill="#449168" transform="translate(13 13)"><path d="m12.4285714 18.6426471h-10.87499997v-17.08907567h10.87499997zm.7766807-18.6426471h-12.42836134c-.42920168 0-.77689076.34726891-.77689076.77668067v18.64264703c0 .4294118.34768908.7768908.77689076.7768908h12.42836134c.4289916 0 .7768908-.347479.7768908-.7768908v-18.64264703c0-.42941176-.3478992-.77668067-.7768908-.77668067z"/><path d="m3.88781513 6.2157563h6.21407567c.4289916 0 .7768907-.34747899.7768907-.77689075 0-.42941177-.3478991-.77668068-.7768907-.77668068h-6.21407567c-.4289916 0-.77689076.34726891-.77689076.77668068 0 .42941176.34789916.77689075.77689076.77689075z"/><path d="m3.88781513 10.8762605h6.21302517c.4289916 0 .7766807-.3472689.7766807-.7766807 0-.42941173-.3476891-.77689072-.7766807-.77689072h-6.21302517c-.4289916 0-.77689076.34747899-.77689076.77689072 0 .4294118.34789916.7766807.77689076.7766807z" opacity=".479004"/><path d="m3.88781513 15.5369748h6.21407567c.4289916 0 .7768907-.347479.7768907-.7766807 0-.4294117-.3478991-.7768907-.7768907-.7768907h-6.21407567c-.4289916 0-.77689076.347479-.77689076.7768907 0 .4292017.34789916.7766807.77689076.7766807z" opacity=".207241"/><path d="m23.3033613 23.3031513h-6.2142857v-2.3302521c0-.4285715.3487395-.7766807.7768908-.7766807h4.6607143c.4281512 0 .7766806.3481092.7766806.7766807zm-.7766806-4.6605042h-4.6607143c-1.285084 0-2.3302521 1.045168-2.3302521 2.3302521v3.1071428c0 .4292017.3476891.7766807.7766807.7766807h7.7678571c.4287815 0 .7766807-.347479.7766807-.7766807v-3.1071428c0-1.2850841-1.0453782-2.3302521-2.3302521-2.3302521z"/><path d="m20.2 13.2067227c.8569328 0 1.5535714.6970588 1.5535714 1.5535714s-.6966386 1.5535714-1.5535714 1.5535714c-.8567227 0-1.5533613-.6970588-1.5533613-1.5535714s.6966386-1.5535714 1.5533613-1.5535714zm0 4.6607143c1.7132353 0 3.1071429-1.3936975 3.1071429-3.1071429 0-1.7136554-1.3939076-3.1071428-3.1071429-3.1071428s-3.1069328 1.3934874-3.1069328 3.1071428c0 1.7134454 1.3936975 3.1071429 3.1069328 3.1071429z"/></g></g></svg>